<mxfile host="app.diagrams.net" modified="2023-11-14T09:33:06.171Z" agent="Mozilla/5.0 (Macintosh; Intel Mac OS X 10_15_7) AppleWebKit/537.36 (KHTML, like Gecko) Chrome/119.0.0.0 Safari/537.36" etag="UABQaTH9mDUCLHil4J9B" version="22.1.0" type="github">
  <diagram id="yPxyJZ8AM_hMuL3Unpa9" name="complex gitflow">
    <mxGraphModel dx="2060" dy="1142" grid="0" gridSize="10" guides="1" tooltips="1" connect="1" arrows="1" fold="1" page="0" pageScale="1" pageWidth="1100" pageHeight="850" math="0" shadow="0">
      <root>
        <mxCell id="0" />
        <mxCell id="1" parent="0" />
        <mxCell id="Fs9GSCr-eO8BMasJ_3ua-2" value="" style="verticalLabelPosition=bottom;verticalAlign=top;html=1;strokeWidth=4;shape=mxgraph.flowchart.on-page_reference;fillColor=#dae8fc;strokeColor=#6c8ebf;" vertex="1" parent="1">
          <mxGeometry x="262.25" y="196" width="30" height="30" as="geometry" />
        </mxCell>
        <mxCell id="Fs9GSCr-eO8BMasJ_3ua-4" value="" style="edgeStyle=orthogonalEdgeStyle;rounded=0;html=1;jettySize=auto;orthogonalLoop=1;strokeWidth=4;endArrow=none;endFill=0;" edge="1" parent="1" target="Fs9GSCr-eO8BMasJ_3ua-2">
          <mxGeometry x="192.25" y="211" as="geometry">
            <mxPoint x="150" y="211" as="sourcePoint" />
          </mxGeometry>
        </mxCell>
        <mxCell id="Fs9GSCr-eO8BMasJ_3ua-5" value="shopee" style="text;html=1;strokeColor=none;fillColor=none;align=center;verticalAlign=middle;whiteSpace=wrap;overflow=hidden;fontSize=14;fontStyle=1;fontFamily=Courier New;" vertex="1" parent="1">
          <mxGeometry x="88.25" y="190" width="55.75" height="42" as="geometry" />
        </mxCell>
        <mxCell id="Fs9GSCr-eO8BMasJ_3ua-6" value="" style="verticalLabelPosition=bottom;verticalAlign=top;html=1;strokeWidth=4;shape=mxgraph.flowchart.on-page_reference;strokeColor=#006EAF;fillColor=#1ba1e2;fontColor=#ffffff;" vertex="1" parent="1">
          <mxGeometry x="434" y="401" width="30" height="30" as="geometry" />
        </mxCell>
        <mxCell id="Fs9GSCr-eO8BMasJ_3ua-7" value="zsy/release/1.0.1-shopeebeta" style="text;html=1;strokeColor=none;fillColor=none;align=left;verticalAlign=middle;whiteSpace=wrap;overflow=hidden;fontSize=14;fontStyle=1;fontFamily=Courier New;" vertex="1" parent="1">
          <mxGeometry x="88.38" y="622" width="240" height="20" as="geometry" />
        </mxCell>
        <mxCell id="Fs9GSCr-eO8BMasJ_3ua-13" value="The beta release branch" style="text;html=1;strokeColor=none;fillColor=none;align=left;verticalAlign=middle;whiteSpace=wrap;overflow=hidden;fontSize=14;fontStyle=0;fontColor=#009900;" vertex="1" parent="1">
          <mxGeometry x="86.38" y="642" width="240" height="20" as="geometry" />
        </mxCell>
        <mxCell id="Fs9GSCr-eO8BMasJ_3ua-14" value="The shopee main branch" style="text;html=1;strokeColor=none;fillColor=none;align=left;verticalAlign=middle;whiteSpace=wrap;overflow=hidden;fontSize=14;fontStyle=0;fontColor=#009900;" vertex="1" parent="1">
          <mxGeometry x="88.25" y="220" width="189.75" height="20" as="geometry" />
        </mxCell>
        <mxCell id="Fs9GSCr-eO8BMasJ_3ua-16" value="" style="endArrow=classic;html=1;strokeWidth=1;fontFamily=Courier New;fontColor=#009900;" edge="1" parent="1" source="Fs9GSCr-eO8BMasJ_3ua-209">
          <mxGeometry width="50" height="50" relative="1" as="geometry">
            <mxPoint x="304" y="418" as="sourcePoint" />
            <mxPoint x="394" y="418" as="targetPoint" />
          </mxGeometry>
        </mxCell>
        <mxCell id="Fs9GSCr-eO8BMasJ_3ua-17" value="Tag: 1.0.0" style="text;html=1;strokeColor=#36393d;fillColor=#cce5ff;align=center;verticalAlign=middle;whiteSpace=wrap;overflow=hidden;fontSize=14;" vertex="1" parent="1">
          <mxGeometry x="242.25" y="170" width="70" height="20" as="geometry" />
        </mxCell>
        <mxCell id="Fs9GSCr-eO8BMasJ_3ua-18" value="" style="verticalLabelPosition=bottom;verticalAlign=top;html=1;strokeWidth=4;shape=mxgraph.flowchart.on-page_reference;strokeColor=#006EAF;fillColor=#1ba1e2;fontColor=#ffffff;" vertex="1" parent="1">
          <mxGeometry x="577" y="401" width="30" height="30" as="geometry" />
        </mxCell>
        <mxCell id="Fs9GSCr-eO8BMasJ_3ua-21" value="" style="edgeStyle=orthogonalEdgeStyle;rounded=0;orthogonalLoop=1;jettySize=auto;html=1;fontSize=12;fontColor=#000000;entryX=0;entryY=0.5;entryDx=0;entryDy=0;" edge="1" parent="1" source="Fs9GSCr-eO8BMasJ_3ua-22" target="Fs9GSCr-eO8BMasJ_3ua-17">
          <mxGeometry relative="1" as="geometry">
            <mxPoint x="222.25" y="180" as="targetPoint" />
            <Array as="points">
              <mxPoint x="222.25" y="180" />
              <mxPoint x="222.25" y="180" />
            </Array>
          </mxGeometry>
        </mxCell>
        <mxCell id="Fs9GSCr-eO8BMasJ_3ua-22" value="&lt;span style=&quot;text-align: center; font-size: 11px;&quot;&gt;Each tag represents a production release.&lt;/span&gt;" style="text;html=1;strokeColor=none;fillColor=none;align=left;verticalAlign=middle;whiteSpace=wrap;overflow=hidden;fontSize=11;fontStyle=0;fontColor=#000000;" vertex="1" parent="1">
          <mxGeometry x="94.5" y="158" width="120" height="38" as="geometry" />
        </mxCell>
        <UserObject label="Shopee Low Code Engine Feature Dev Git-flow :" id="Fs9GSCr-eO8BMasJ_3ua-23">
          <mxCell style="text;whiteSpace=wrap;html=1;fontStyle=1;fontSize=16;" vertex="1" parent="1">
            <mxGeometry x="82.25" y="90" width="427.75" height="25" as="geometry" />
          </mxCell>
        </UserObject>
        <mxCell id="Fs9GSCr-eO8BMasJ_3ua-24" style="edgeStyle=orthogonalEdgeStyle;curved=1;rounded=0;orthogonalLoop=1;jettySize=auto;html=1;endArrow=none;endFill=0;strokeWidth=4;fontFamily=Courier New;fontColor=#009900;" edge="1" parent="1" source="Fs9GSCr-eO8BMasJ_3ua-2" target="Fs9GSCr-eO8BMasJ_3ua-6">
          <mxGeometry relative="1" as="geometry">
            <mxPoint x="266.75" y="256" as="sourcePoint" />
            <mxPoint x="416.75" y="376" as="targetPoint" />
            <Array as="points">
              <mxPoint x="381" y="211" />
              <mxPoint x="381" y="411" />
            </Array>
          </mxGeometry>
        </mxCell>
        <mxCell id="Fs9GSCr-eO8BMasJ_3ua-64" value="check out" style="edgeLabel;html=1;align=center;verticalAlign=middle;resizable=0;points=[];fontSize=12;" vertex="1" connectable="0" parent="Fs9GSCr-eO8BMasJ_3ua-24">
          <mxGeometry x="-0.0409" y="-5" relative="1" as="geometry">
            <mxPoint as="offset" />
          </mxGeometry>
        </mxCell>
        <mxCell id="Fs9GSCr-eO8BMasJ_3ua-31" value="" style="edgeStyle=orthogonalEdgeStyle;curved=1;rounded=0;orthogonalLoop=1;jettySize=auto;html=1;endArrow=none;endFill=0;strokeWidth=4;fontFamily=Courier New;fontColor=#009900;entryX=0;entryY=0.5;entryDx=0;entryDy=0;entryPerimeter=0;" edge="1" parent="1" target="Fs9GSCr-eO8BMasJ_3ua-18" source="Fs9GSCr-eO8BMasJ_3ua-6">
          <mxGeometry relative="1" as="geometry">
            <mxPoint x="581.25" y="415.5" as="sourcePoint" />
            <mxPoint x="641.25" y="415.5" as="targetPoint" />
          </mxGeometry>
        </mxCell>
        <mxCell id="Fs9GSCr-eO8BMasJ_3ua-34" value="release/1.0.1-shopee" style="text;html=1;strokeColor=none;fillColor=none;align=left;verticalAlign=middle;whiteSpace=wrap;overflow=hidden;fontSize=14;fontStyle=1;fontFamily=Courier New;" vertex="1" parent="1">
          <mxGeometry x="96.5" y="870" width="240" height="20" as="geometry" />
        </mxCell>
        <mxCell id="Fs9GSCr-eO8BMasJ_3ua-35" value="The release branch" style="text;html=1;strokeColor=none;fillColor=none;align=left;verticalAlign=middle;whiteSpace=wrap;overflow=hidden;fontSize=14;fontStyle=0;fontColor=#009900;" vertex="1" parent="1">
          <mxGeometry x="94.5" y="890" width="240" height="20" as="geometry" />
        </mxCell>
        <mxCell id="Fs9GSCr-eO8BMasJ_3ua-36" value="" style="endArrow=classic;html=1;strokeWidth=1;fontFamily=Courier New;fontColor=#009900;" edge="1" parent="1">
          <mxGeometry width="50" height="50" relative="1" as="geometry">
            <mxPoint x="280.25" y="882" as="sourcePoint" />
            <mxPoint x="986" y="882" as="targetPoint" />
          </mxGeometry>
        </mxCell>
        <mxCell id="Fs9GSCr-eO8BMasJ_3ua-37" value="" style="verticalLabelPosition=bottom;verticalAlign=top;html=1;strokeWidth=4;shape=mxgraph.flowchart.on-page_reference;strokeColor=#36393d;fillColor=#ffff88;" vertex="1" parent="1">
          <mxGeometry x="1264.25" y="860" width="30" height="30" as="geometry" />
        </mxCell>
        <mxCell id="Fs9GSCr-eO8BMasJ_3ua-43" value="" style="verticalLabelPosition=bottom;verticalAlign=top;html=1;strokeWidth=4;shape=mxgraph.flowchart.on-page_reference;strokeColor=#36393d;fillColor=#ffff88;" vertex="1" parent="1">
          <mxGeometry x="1399.25" y="860" width="30" height="30" as="geometry" />
        </mxCell>
        <mxCell id="Fs9GSCr-eO8BMasJ_3ua-44" value="" style="edgeStyle=orthogonalEdgeStyle;curved=1;rounded=0;orthogonalLoop=1;jettySize=auto;html=1;endArrow=none;endFill=0;strokeWidth=4;fontFamily=Courier New;fontColor=#009900;" edge="1" parent="1" source="Fs9GSCr-eO8BMasJ_3ua-37" target="Fs9GSCr-eO8BMasJ_3ua-43">
          <mxGeometry relative="1" as="geometry">
            <mxPoint x="1708.5" y="874.5" as="sourcePoint" />
            <mxPoint x="1597.25" y="875" as="targetPoint" />
          </mxGeometry>
        </mxCell>
        <mxCell id="Fs9GSCr-eO8BMasJ_3ua-51" value="lerna publish&lt;br&gt;Tag: 1.0.0-shopeebeta.1" style="text;html=1;strokeColor=#d6b656;fillColor=#fff2cc;align=center;verticalAlign=middle;whiteSpace=wrap;overflow=hidden;fontSize=14;" vertex="1" parent="1">
          <mxGeometry x="842.75" y="559" width="153" height="42" as="geometry" />
        </mxCell>
        <mxCell id="Fs9GSCr-eO8BMasJ_3ua-54" value="implement feature&lt;br&gt;or fix bug" style="text;html=1;strokeColor=#006EAF;fillColor=#1ba1e2;align=center;verticalAlign=middle;whiteSpace=wrap;overflow=hidden;fontSize=14;fontColor=#ffffff;" vertex="1" parent="1">
          <mxGeometry x="536" y="350" width="117" height="43" as="geometry" />
        </mxCell>
        <mxCell id="Fs9GSCr-eO8BMasJ_3ua-60" value="" style="edgeStyle=orthogonalEdgeStyle;rounded=0;html=1;jettySize=auto;orthogonalLoop=1;strokeWidth=4;endArrow=none;endFill=0;" edge="1" parent="1" target="Fs9GSCr-eO8BMasJ_3ua-57">
          <mxGeometry x="192.25" y="211" as="geometry">
            <mxPoint x="292.25" y="210.5" as="sourcePoint" />
            <mxPoint x="404" y="211" as="targetPoint" />
          </mxGeometry>
        </mxCell>
        <mxCell id="Fs9GSCr-eO8BMasJ_3ua-62" style="edgeStyle=orthogonalEdgeStyle;curved=1;rounded=0;orthogonalLoop=1;jettySize=auto;html=1;endArrow=none;endFill=0;strokeWidth=4;fontFamily=Courier New;fontColor=#009900;exitX=0;exitY=0.5;exitDx=0;exitDy=0;exitPerimeter=0;entryX=1;entryY=0.5;entryDx=0;entryDy=0;entryPerimeter=0;" edge="1" parent="1" source="Fs9GSCr-eO8BMasJ_3ua-208" target="Fs9GSCr-eO8BMasJ_3ua-18">
          <mxGeometry relative="1" as="geometry">
            <mxPoint x="703" y="211" as="sourcePoint" />
            <mxPoint x="593" y="415" as="targetPoint" />
            <Array as="points">
              <mxPoint x="678" y="627" />
              <mxPoint x="678" y="415" />
            </Array>
          </mxGeometry>
        </mxCell>
        <mxCell id="Fs9GSCr-eO8BMasJ_3ua-63" value="check out" style="edgeLabel;html=1;align=center;verticalAlign=middle;resizable=0;points=[];fontSize=12;" vertex="1" connectable="0" parent="Fs9GSCr-eO8BMasJ_3ua-62">
          <mxGeometry x="0.0107" y="3" relative="1" as="geometry">
            <mxPoint as="offset" />
          </mxGeometry>
        </mxCell>
        <mxCell id="Fs9GSCr-eO8BMasJ_3ua-80" value="shopee" style="text;html=1;strokeColor=none;fillColor=none;align=left;verticalAlign=middle;whiteSpace=wrap;overflow=hidden;fontSize=14;fontStyle=1;fontFamily=Courier New;" vertex="1" parent="1">
          <mxGeometry x="77.25" y="2467" width="108" height="20" as="geometry" />
        </mxCell>
        <mxCell id="Fs9GSCr-eO8BMasJ_3ua-81" value="The shopee main branch" style="text;html=1;strokeColor=none;fillColor=none;align=left;verticalAlign=middle;whiteSpace=wrap;overflow=hidden;fontSize=14;fontStyle=0;fontColor=#009900;" vertex="1" parent="1">
          <mxGeometry x="75.25" y="2487" width="240" height="20" as="geometry" />
        </mxCell>
        <UserObject label="Shopee Low Code Engine Merge Ali Low Code Engine&amp;nbsp; Git-flow :" link="https://nvie.com/posts/a-successful-git-branching-model/" id="Fs9GSCr-eO8BMasJ_3ua-88">
          <mxCell style="text;whiteSpace=wrap;html=1;fontStyle=1;fontSize=16;" vertex="1" parent="1">
            <mxGeometry x="69" y="1916" width="561" height="20" as="geometry" />
          </mxCell>
        </UserObject>
        <mxCell id="Fs9GSCr-eO8BMasJ_3ua-91" value="" style="edgeStyle=orthogonalEdgeStyle;curved=1;rounded=0;orthogonalLoop=1;jettySize=auto;html=1;endArrow=none;endFill=0;strokeWidth=4;fontFamily=Courier New;fontColor=#009900;" edge="1" parent="1" source="Fs9GSCr-eO8BMasJ_3ua-190" target="Fs9GSCr-eO8BMasJ_3ua-191">
          <mxGeometry relative="1" as="geometry">
            <mxPoint x="404" y="2477" as="sourcePoint" />
            <mxPoint x="540" y="2477" as="targetPoint" />
          </mxGeometry>
        </mxCell>
        <mxCell id="Fs9GSCr-eO8BMasJ_3ua-103" value="Tag: 1.0.0-shopee.1" style="text;html=1;strokeColor=none;fillColor=none;align=center;verticalAlign=middle;whiteSpace=wrap;overflow=hidden;fontSize=14;" vertex="1" parent="1">
          <mxGeometry x="667.75" y="2433" width="197.5" height="20" as="geometry" />
        </mxCell>
        <mxCell id="Fs9GSCr-eO8BMasJ_3ua-142" value="" style="verticalLabelPosition=bottom;verticalAlign=top;html=1;strokeWidth=4;shape=mxgraph.flowchart.on-page_reference;fillColor=#dae8fc;strokeColor=#6c8ebf;" vertex="1" parent="1">
          <mxGeometry x="249.25" y="1985" width="30" height="30" as="geometry" />
        </mxCell>
        <mxCell id="Fs9GSCr-eO8BMasJ_3ua-143" value="" style="verticalLabelPosition=bottom;verticalAlign=top;html=1;strokeWidth=4;shape=mxgraph.flowchart.on-page_reference;strokeColor=#6c8ebf;fillColor=#dae8fc;" vertex="1" parent="1">
          <mxGeometry x="1138" y="1985" width="30" height="30" as="geometry" />
        </mxCell>
        <mxCell id="Fs9GSCr-eO8BMasJ_3ua-144" value="" style="edgeStyle=orthogonalEdgeStyle;rounded=0;html=1;jettySize=auto;orthogonalLoop=1;strokeWidth=4;endArrow=none;endFill=0;" edge="1" parent="1" target="Fs9GSCr-eO8BMasJ_3ua-142">
          <mxGeometry x="192.25" y="211" as="geometry">
            <mxPoint x="137" y="2000" as="sourcePoint" />
          </mxGeometry>
        </mxCell>
        <mxCell id="Fs9GSCr-eO8BMasJ_3ua-145" value="main" style="text;html=1;strokeColor=none;fillColor=none;align=center;verticalAlign=middle;whiteSpace=wrap;overflow=hidden;fontSize=14;fontStyle=1;fontFamily=Courier New;" vertex="1" parent="1">
          <mxGeometry x="75.25" y="1979" width="55.75" height="42" as="geometry" />
        </mxCell>
        <mxCell id="Fs9GSCr-eO8BMasJ_3ua-146" value="" style="edgeStyle=orthogonalEdgeStyle;rounded=0;orthogonalLoop=1;jettySize=auto;html=1;fontSize=12;fontColor=#000000;entryX=0;entryY=0.5;entryDx=0;entryDy=0;" edge="1" parent="1">
          <mxGeometry relative="1" as="geometry">
            <mxPoint x="229.25" y="1969" as="targetPoint" />
            <Array as="points">
              <mxPoint x="209.25" y="1969" />
              <mxPoint x="209.25" y="1969" />
            </Array>
            <mxPoint x="201.5" y="1969" as="sourcePoint" />
          </mxGeometry>
        </mxCell>
        <mxCell id="Fs9GSCr-eO8BMasJ_3ua-147" value="" style="verticalLabelPosition=bottom;verticalAlign=top;html=1;strokeWidth=4;shape=mxgraph.flowchart.on-page_reference;strokeColor=#6c8ebf;fillColor=#dae8fc;" vertex="1" parent="1">
          <mxGeometry x="686.5" y="1985" width="30" height="30" as="geometry" />
        </mxCell>
        <mxCell id="Fs9GSCr-eO8BMasJ_3ua-148" value="" style="edgeStyle=orthogonalEdgeStyle;rounded=0;html=1;jettySize=auto;orthogonalLoop=1;strokeWidth=4;endArrow=none;endFill=0;" edge="1" parent="1" target="Fs9GSCr-eO8BMasJ_3ua-147">
          <mxGeometry x="192.25" y="211" as="geometry">
            <mxPoint x="279.25" y="1999.5" as="sourcePoint" />
            <mxPoint x="391" y="2000" as="targetPoint" />
          </mxGeometry>
        </mxCell>
        <mxCell id="Fs9GSCr-eO8BMasJ_3ua-149" value="" style="edgeStyle=orthogonalEdgeStyle;rounded=0;html=1;jettySize=auto;orthogonalLoop=1;strokeWidth=4;endArrow=none;endFill=0;" edge="1" parent="1" target="Fs9GSCr-eO8BMasJ_3ua-143">
          <mxGeometry x="192.25" y="211" as="geometry">
            <mxPoint x="716.5" y="1999.5" as="sourcePoint" />
            <mxPoint x="1124.25" y="2000" as="targetPoint" />
          </mxGeometry>
        </mxCell>
        <mxCell id="Fs9GSCr-eO8BMasJ_3ua-150" value="Tag: 1.0.1" style="text;html=1;strokeColor=none;fillColor=none;align=center;verticalAlign=middle;whiteSpace=wrap;overflow=hidden;fontSize=14;" vertex="1" parent="1">
          <mxGeometry x="229.25" y="1959" width="70" height="20" as="geometry" />
        </mxCell>
        <mxCell id="Fs9GSCr-eO8BMasJ_3ua-152" value="Tag: 1.0.2" style="text;html=1;strokeColor=none;fillColor=none;align=center;verticalAlign=middle;whiteSpace=wrap;overflow=hidden;fontSize=14;" vertex="1" parent="1">
          <mxGeometry x="666.5" y="1955" width="70" height="20" as="geometry" />
        </mxCell>
        <mxCell id="Fs9GSCr-eO8BMasJ_3ua-154" value="Tag: 1.0.3" style="text;html=1;strokeColor=none;fillColor=none;align=center;verticalAlign=middle;whiteSpace=wrap;overflow=hidden;fontSize=14;" vertex="1" parent="1">
          <mxGeometry x="1118" y="1953" width="70" height="20" as="geometry" />
        </mxCell>
        <mxCell id="Fs9GSCr-eO8BMasJ_3ua-156" value="" style="verticalLabelPosition=bottom;verticalAlign=top;html=1;strokeWidth=4;shape=mxgraph.flowchart.on-page_reference;strokeColor=#d6b656;fillColor=#fff2cc;" vertex="1" parent="1">
          <mxGeometry x="913.75" y="2141" width="30" height="30" as="geometry" />
        </mxCell>
        <mxCell id="Fs9GSCr-eO8BMasJ_3ua-157" value="" style="edgeStyle=orthogonalEdgeStyle;rounded=0;html=1;jettySize=auto;orthogonalLoop=1;strokeWidth=4;endArrow=none;endFill=0;entryX=0;entryY=0.5;entryDx=0;entryDy=0;entryPerimeter=0;" edge="1" parent="1" target="Fs9GSCr-eO8BMasJ_3ua-162">
          <mxGeometry x="192.25" y="211" as="geometry">
            <mxPoint x="140.75" y="2156" as="sourcePoint" />
            <mxPoint x="253" y="2156" as="targetPoint" />
          </mxGeometry>
        </mxCell>
        <mxCell id="Fs9GSCr-eO8BMasJ_3ua-158" value="shopee" style="text;html=1;strokeColor=none;fillColor=none;align=center;verticalAlign=middle;whiteSpace=wrap;overflow=hidden;fontSize=14;fontStyle=1;fontFamily=Courier New;" vertex="1" parent="1">
          <mxGeometry x="79" y="2135" width="55.75" height="42" as="geometry" />
        </mxCell>
        <mxCell id="Fs9GSCr-eO8BMasJ_3ua-159" value="The main branch&lt;br&gt;" style="text;html=1;strokeColor=none;fillColor=none;align=left;verticalAlign=middle;whiteSpace=wrap;overflow=hidden;fontSize=14;fontStyle=0;fontColor=#009900;" vertex="1" parent="1">
          <mxGeometry x="84.13" y="2013" width="146.75" height="20" as="geometry" />
        </mxCell>
        <mxCell id="Fs9GSCr-eO8BMasJ_3ua-160" value="Tag: 1.0.1-shopee.1" style="text;html=1;strokeColor=none;fillColor=none;align=center;verticalAlign=middle;whiteSpace=wrap;overflow=hidden;fontSize=14;" vertex="1" parent="1">
          <mxGeometry x="379.25" y="2115" width="142" height="20" as="geometry" />
        </mxCell>
        <mxCell id="Fs9GSCr-eO8BMasJ_3ua-162" value="" style="verticalLabelPosition=bottom;verticalAlign=top;html=1;strokeWidth=4;shape=mxgraph.flowchart.on-page_reference;strokeColor=#d6b656;fillColor=#fff2cc;" vertex="1" parent="1">
          <mxGeometry x="431.75" y="2141" width="30" height="30" as="geometry" />
        </mxCell>
        <mxCell id="Fs9GSCr-eO8BMasJ_3ua-164" value="" style="edgeStyle=orthogonalEdgeStyle;rounded=0;html=1;jettySize=auto;orthogonalLoop=1;strokeWidth=4;endArrow=none;endFill=0;exitX=1;exitY=0.5;exitDx=0;exitDy=0;exitPerimeter=0;" edge="1" parent="1" target="Fs9GSCr-eO8BMasJ_3ua-156" source="Fs9GSCr-eO8BMasJ_3ua-162">
          <mxGeometry x="192.25" y="211" as="geometry">
            <mxPoint x="720.25" y="2155.5" as="sourcePoint" />
            <mxPoint x="1128" y="2156" as="targetPoint" />
          </mxGeometry>
        </mxCell>
        <mxCell id="Fs9GSCr-eO8BMasJ_3ua-165" value="The shopee main branch" style="text;html=1;strokeColor=none;fillColor=none;align=left;verticalAlign=middle;whiteSpace=wrap;overflow=hidden;fontSize=14;fontStyle=0;fontColor=#009900;" vertex="1" parent="1">
          <mxGeometry x="87" y="2184" width="215.75" height="20" as="geometry" />
        </mxCell>
        <mxCell id="Fs9GSCr-eO8BMasJ_3ua-167" value="" style="edgeStyle=orthogonalEdgeStyle;rounded=0;orthogonalLoop=1;jettySize=auto;html=1;fontSize=12;fontColor=#000000;" edge="1" parent="1" target="Fs9GSCr-eO8BMasJ_3ua-160">
          <mxGeometry relative="1" as="geometry">
            <mxPoint x="369" y="2124.5" as="targetPoint" />
            <Array as="points" />
            <mxPoint x="341.25" y="2124.5" as="sourcePoint" />
          </mxGeometry>
        </mxCell>
        <mxCell id="Fs9GSCr-eO8BMasJ_3ua-169" value="Tag: 1.0.1-shopee.2" style="text;html=1;strokeColor=none;fillColor=none;align=center;verticalAlign=middle;whiteSpace=wrap;overflow=hidden;fontSize=14;" vertex="1" parent="1">
          <mxGeometry x="853.75" y="2115" width="142" height="20" as="geometry" />
        </mxCell>
        <mxCell id="Fs9GSCr-eO8BMasJ_3ua-170" value="" style="edgeStyle=orthogonalEdgeStyle;rounded=0;orthogonalLoop=1;jettySize=auto;html=1;fontSize=12;fontColor=#000000;" edge="1" parent="1" target="Fs9GSCr-eO8BMasJ_3ua-169">
          <mxGeometry relative="1" as="geometry">
            <mxPoint x="843.5" y="2124.5" as="targetPoint" />
            <Array as="points" />
            <mxPoint x="815.75" y="2124.5" as="sourcePoint" />
          </mxGeometry>
        </mxCell>
        <mxCell id="Fs9GSCr-eO8BMasJ_3ua-172" value="" style="edgeStyle=orthogonalEdgeStyle;rounded=0;html=1;jettySize=auto;orthogonalLoop=1;strokeWidth=4;endArrow=none;endFill=0;exitX=1;exitY=0.5;exitDx=0;exitDy=0;exitPerimeter=0;dashed=1;" edge="1" parent="1" target="Fs9GSCr-eO8BMasJ_3ua-173">
          <mxGeometry x="192.25" y="211" as="geometry">
            <mxPoint x="944.75" y="2155.5" as="sourcePoint" />
            <mxPoint x="1396.75" y="2155.5" as="targetPoint" />
          </mxGeometry>
        </mxCell>
        <mxCell id="Fs9GSCr-eO8BMasJ_3ua-173" value="" style="verticalLabelPosition=bottom;verticalAlign=top;html=1;strokeWidth=4;shape=mxgraph.flowchart.on-page_reference;strokeColor=#d6b656;fillColor=#fff2cc;" vertex="1" parent="1">
          <mxGeometry x="1280.75" y="2141" width="30" height="30" as="geometry" />
        </mxCell>
        <mxCell id="Fs9GSCr-eO8BMasJ_3ua-179" value="" style="edgeStyle=orthogonalEdgeStyle;curved=1;rounded=0;orthogonalLoop=1;jettySize=auto;html=1;endArrow=none;endFill=0;strokeWidth=4;fontFamily=Courier New;fontColor=#009900;exitX=1;exitY=0.5;exitDx=0;exitDy=0;exitPerimeter=0;entryX=0;entryY=0.5;entryDx=0;entryDy=0;entryPerimeter=0;dashed=1;" edge="1" parent="1" source="Fs9GSCr-eO8BMasJ_3ua-143" target="Fs9GSCr-eO8BMasJ_3ua-173">
          <mxGeometry relative="1" as="geometry">
            <mxPoint x="1154" y="2046" as="sourcePoint" />
            <mxPoint x="1295" y="2046" as="targetPoint" />
          </mxGeometry>
        </mxCell>
        <mxCell id="Fs9GSCr-eO8BMasJ_3ua-180" value="rebase&amp;nbsp;" style="edgeLabel;html=1;align=center;verticalAlign=middle;resizable=0;points=[];fontSize=12;" vertex="1" connectable="0" parent="Fs9GSCr-eO8BMasJ_3ua-179">
          <mxGeometry x="-0.0952" y="4" relative="1" as="geometry">
            <mxPoint as="offset" />
          </mxGeometry>
        </mxCell>
        <mxCell id="Fs9GSCr-eO8BMasJ_3ua-181" value="" style="shape=flexArrow;endArrow=classic;html=1;rounded=0;endWidth=81;endSize=18.67;width=68;strokeWidth=4;" edge="1" parent="1">
          <mxGeometry width="50" height="50" relative="1" as="geometry">
            <mxPoint x="653" y="2264" as="sourcePoint" />
            <mxPoint x="653" y="2381" as="targetPoint" />
          </mxGeometry>
        </mxCell>
        <mxCell id="Fs9GSCr-eO8BMasJ_3ua-302" value="Rebase" style="edgeLabel;html=1;align=center;verticalAlign=middle;resizable=0;points=[];fontSize=14;" vertex="1" connectable="0" parent="Fs9GSCr-eO8BMasJ_3ua-181">
          <mxGeometry x="-0.2527" y="-2" relative="1" as="geometry">
            <mxPoint as="offset" />
          </mxGeometry>
        </mxCell>
        <mxCell id="Fs9GSCr-eO8BMasJ_3ua-184" value="" style="verticalLabelPosition=bottom;verticalAlign=top;html=1;strokeWidth=4;shape=mxgraph.flowchart.on-page_reference;fillColor=#dae8fc;strokeColor=#6c8ebf;" vertex="1" parent="1">
          <mxGeometry x="249.25" y="2462" width="30" height="30" as="geometry" />
        </mxCell>
        <mxCell id="Fs9GSCr-eO8BMasJ_3ua-185" value="" style="edgeStyle=orthogonalEdgeStyle;rounded=0;html=1;jettySize=auto;orthogonalLoop=1;strokeWidth=4;endArrow=none;endFill=0;" edge="1" parent="1">
          <mxGeometry x="192.25" y="211" as="geometry">
            <mxPoint x="139.25" y="2476.5" as="sourcePoint" />
            <mxPoint x="251.25" y="2476.5" as="targetPoint" />
          </mxGeometry>
        </mxCell>
        <mxCell id="Fs9GSCr-eO8BMasJ_3ua-187" value="" style="edgeStyle=orthogonalEdgeStyle;rounded=0;html=1;jettySize=auto;orthogonalLoop=1;strokeWidth=4;endArrow=none;endFill=0;exitX=1;exitY=0.5;exitDx=0;exitDy=0;exitPerimeter=0;" edge="1" parent="1" source="Fs9GSCr-eO8BMasJ_3ua-184" target="Fs9GSCr-eO8BMasJ_3ua-190">
          <mxGeometry x="192.25" y="211" as="geometry">
            <mxPoint x="149.25" y="2486.5" as="sourcePoint" />
            <mxPoint x="379" y="2477" as="targetPoint" />
          </mxGeometry>
        </mxCell>
        <mxCell id="Fs9GSCr-eO8BMasJ_3ua-188" value="Tag: 1.0.1" style="text;html=1;strokeColor=none;fillColor=none;align=center;verticalAlign=middle;whiteSpace=wrap;overflow=hidden;fontSize=14;" vertex="1" parent="1">
          <mxGeometry x="227" y="2430" width="70" height="20" as="geometry" />
        </mxCell>
        <mxCell id="Fs9GSCr-eO8BMasJ_3ua-189" value="Tag: 1.0.2" style="text;html=1;strokeColor=none;fillColor=none;align=center;verticalAlign=middle;whiteSpace=wrap;overflow=hidden;fontSize=14;" vertex="1" parent="1">
          <mxGeometry x="352" y="2430" width="70" height="20" as="geometry" />
        </mxCell>
        <mxCell id="Fs9GSCr-eO8BMasJ_3ua-193" value="" style="edgeStyle=orthogonalEdgeStyle;curved=1;rounded=0;orthogonalLoop=1;jettySize=auto;html=1;endArrow=none;endFill=0;strokeWidth=4;fontFamily=Courier New;fontColor=#009900;entryX=0;entryY=0.5;entryDx=0;entryDy=0;entryPerimeter=0;" edge="1" parent="1" target="Fs9GSCr-eO8BMasJ_3ua-190">
          <mxGeometry relative="1" as="geometry">
            <mxPoint x="404" y="2477" as="sourcePoint" />
            <mxPoint x="540" y="2477" as="targetPoint" />
          </mxGeometry>
        </mxCell>
        <mxCell id="Fs9GSCr-eO8BMasJ_3ua-190" value="" style="verticalLabelPosition=bottom;verticalAlign=top;html=1;strokeWidth=4;shape=mxgraph.flowchart.on-page_reference;strokeColor=#6c8ebf;fillColor=#dae8fc;" vertex="1" parent="1">
          <mxGeometry x="404" y="2462" width="30" height="30" as="geometry" />
        </mxCell>
        <mxCell id="Fs9GSCr-eO8BMasJ_3ua-194" value="" style="edgeStyle=orthogonalEdgeStyle;curved=1;rounded=0;orthogonalLoop=1;jettySize=auto;html=1;endArrow=none;endFill=0;strokeWidth=4;fontFamily=Courier New;fontColor=#009900;exitX=1;exitY=0.5;exitDx=0;exitDy=0;exitPerimeter=0;" edge="1" parent="1" target="Fs9GSCr-eO8BMasJ_3ua-191">
          <mxGeometry relative="1" as="geometry">
            <mxPoint x="570" y="2477" as="sourcePoint" />
            <mxPoint x="711" y="2477" as="targetPoint" />
          </mxGeometry>
        </mxCell>
        <mxCell id="Fs9GSCr-eO8BMasJ_3ua-191" value="" style="verticalLabelPosition=bottom;verticalAlign=top;html=1;strokeWidth=4;shape=mxgraph.flowchart.on-page_reference;strokeColor=#6c8ebf;fillColor=#dae8fc;" vertex="1" parent="1">
          <mxGeometry x="577" y="2462" width="30" height="30" as="geometry" />
        </mxCell>
        <mxCell id="Fs9GSCr-eO8BMasJ_3ua-195" value="" style="edgeStyle=orthogonalEdgeStyle;curved=1;rounded=0;orthogonalLoop=1;jettySize=auto;html=1;endArrow=none;endFill=0;strokeWidth=4;fontFamily=Courier New;fontColor=#009900;" edge="1" parent="1">
          <mxGeometry relative="1" as="geometry">
            <mxPoint x="609" y="2476.5" as="sourcePoint" />
            <mxPoint x="752" y="2476.5" as="targetPoint" />
          </mxGeometry>
        </mxCell>
        <mxCell id="Fs9GSCr-eO8BMasJ_3ua-196" value="" style="verticalLabelPosition=bottom;verticalAlign=top;html=1;strokeWidth=4;shape=mxgraph.flowchart.on-page_reference;strokeColor=#d6b656;fillColor=#fff2cc;" vertex="1" parent="1">
          <mxGeometry x="751.5" y="2462" width="30" height="30" as="geometry" />
        </mxCell>
        <mxCell id="Fs9GSCr-eO8BMasJ_3ua-197" value="" style="verticalLabelPosition=bottom;verticalAlign=top;html=1;strokeWidth=4;shape=mxgraph.flowchart.on-page_reference;strokeColor=#d6b656;fillColor=#fff2cc;" vertex="1" parent="1">
          <mxGeometry x="926" y="2462" width="30" height="30" as="geometry" />
        </mxCell>
        <mxCell id="Fs9GSCr-eO8BMasJ_3ua-198" value="" style="edgeStyle=orthogonalEdgeStyle;curved=1;rounded=0;orthogonalLoop=1;jettySize=auto;html=1;endArrow=none;endFill=0;strokeWidth=4;fontFamily=Courier New;fontColor=#009900;" edge="1" parent="1">
          <mxGeometry relative="1" as="geometry">
            <mxPoint x="781.5" y="2476.5" as="sourcePoint" />
            <mxPoint x="924.5" y="2476.5" as="targetPoint" />
          </mxGeometry>
        </mxCell>
        <mxCell id="Fs9GSCr-eO8BMasJ_3ua-200" value="Tag: 1.0.1-shopee.2" style="text;html=1;strokeColor=none;fillColor=none;align=center;verticalAlign=middle;whiteSpace=wrap;overflow=hidden;fontSize=14;" vertex="1" parent="1">
          <mxGeometry x="875" y="2430" width="142" height="20" as="geometry" />
        </mxCell>
        <mxCell id="Fs9GSCr-eO8BMasJ_3ua-201" value="Tag: 1.0.3" style="text;html=1;strokeColor=none;fillColor=none;align=center;verticalAlign=middle;whiteSpace=wrap;overflow=hidden;fontSize=14;" vertex="1" parent="1">
          <mxGeometry x="557" y="2430" width="70" height="20" as="geometry" />
        </mxCell>
        <mxCell id="Fs9GSCr-eO8BMasJ_3ua-205" value="" style="edgeStyle=orthogonalEdgeStyle;curved=1;rounded=0;orthogonalLoop=1;jettySize=auto;html=1;endArrow=none;endFill=0;strokeWidth=4;fontFamily=Courier New;fontColor=#009900;" edge="1" parent="1">
          <mxGeometry relative="1" as="geometry">
            <mxPoint x="956" y="2476.5" as="sourcePoint" />
            <mxPoint x="1124.25" y="2476.5" as="targetPoint" />
          </mxGeometry>
        </mxCell>
        <mxCell id="Fs9GSCr-eO8BMasJ_3ua-208" value="" style="verticalLabelPosition=bottom;verticalAlign=top;html=1;strokeWidth=4;shape=mxgraph.flowchart.on-page_reference;strokeColor=#d6b656;fillColor=#fff2cc;" vertex="1" parent="1">
          <mxGeometry x="732.75" y="612" width="30" height="30" as="geometry" />
        </mxCell>
        <mxCell id="Fs9GSCr-eO8BMasJ_3ua-209" value="zsy/feat/jso" style="text;html=1;strokeColor=none;fillColor=none;align=left;verticalAlign=middle;whiteSpace=wrap;overflow=hidden;fontSize=14;fontStyle=1;fontFamily=Courier New;" vertex="1" parent="1">
          <mxGeometry x="86.38" y="407" width="134.62" height="20" as="geometry" />
        </mxCell>
        <mxCell id="Fs9GSCr-eO8BMasJ_3ua-210" value="The MR source branch" style="text;html=1;strokeColor=none;fillColor=none;align=left;verticalAlign=middle;whiteSpace=wrap;overflow=hidden;fontSize=14;fontStyle=0;fontColor=#009900;" vertex="1" parent="1">
          <mxGeometry x="84.38" y="427" width="240" height="20" as="geometry" />
        </mxCell>
        <mxCell id="Fs9GSCr-eO8BMasJ_3ua-211" value="" style="endArrow=classic;html=1;strokeWidth=1;fontFamily=Courier New;fontColor=#009900;" edge="1" parent="1">
          <mxGeometry width="50" height="50" relative="1" as="geometry">
            <mxPoint x="310.25" y="631" as="sourcePoint" />
            <mxPoint x="449" y="631" as="targetPoint" />
          </mxGeometry>
        </mxCell>
        <mxCell id="Fs9GSCr-eO8BMasJ_3ua-217" value="" style="edgeStyle=orthogonalEdgeStyle;rounded=0;html=1;jettySize=auto;orthogonalLoop=1;strokeWidth=4;endArrow=none;endFill=0;" edge="1" parent="1" target="Fs9GSCr-eO8BMasJ_3ua-57">
          <mxGeometry x="192.25" y="211" as="geometry">
            <mxPoint x="729.5" y="210.5" as="sourcePoint" />
            <mxPoint x="1151" y="211" as="targetPoint" />
          </mxGeometry>
        </mxCell>
        <mxCell id="Fs9GSCr-eO8BMasJ_3ua-72" value="&lt;font style=&quot;font-size: 12px;&quot;&gt;lerna publish&lt;br&gt;Tag: 1.0.1-shopee.1&lt;/font&gt;" style="text;html=1;strokeColor=#36393d;fillColor=#ffff88;align=center;verticalAlign=middle;whiteSpace=wrap;overflow=hidden;fontSize=14;" vertex="1" parent="1">
          <mxGeometry x="1355.5" y="807" width="117.5" height="43" as="geometry" />
        </mxCell>
        <mxCell id="Fs9GSCr-eO8BMasJ_3ua-239" value="" style="edgeStyle=orthogonalEdgeStyle;curved=1;rounded=0;orthogonalLoop=1;jettySize=auto;html=1;endArrow=none;endFill=0;strokeWidth=4;fontFamily=Courier New;fontColor=#009900;entryX=1;entryY=0.5;entryDx=0;entryDy=0;entryPerimeter=0;dashed=1;" edge="1" parent="1" source="Fs9GSCr-eO8BMasJ_3ua-313" target="Fs9GSCr-eO8BMasJ_3ua-43">
          <mxGeometry relative="1" as="geometry">
            <mxPoint x="1536.75" y="412" as="sourcePoint" />
            <mxPoint x="1322.25" y="623.5" as="targetPoint" />
            <Array as="points">
              <mxPoint x="1507" y="211" />
              <mxPoint x="1507" y="875" />
            </Array>
          </mxGeometry>
        </mxCell>
        <mxCell id="Fs9GSCr-eO8BMasJ_3ua-240" value="cherry-pick" style="edgeLabel;html=1;align=center;verticalAlign=middle;resizable=0;points=[];" vertex="1" connectable="0" parent="Fs9GSCr-eO8BMasJ_3ua-239">
          <mxGeometry x="-0.2295" y="-1" relative="1" as="geometry">
            <mxPoint y="1" as="offset" />
          </mxGeometry>
        </mxCell>
        <mxCell id="Fs9GSCr-eO8BMasJ_3ua-57" value="" style="verticalLabelPosition=bottom;verticalAlign=top;html=1;strokeWidth=4;shape=mxgraph.flowchart.on-page_reference;strokeColor=#6c8ebf;fillColor=#dae8fc;" vertex="1" parent="1">
          <mxGeometry x="826" y="196" width="30" height="30" as="geometry" />
        </mxCell>
        <mxCell id="Fs9GSCr-eO8BMasJ_3ua-303" value="" style="edgeStyle=orthogonalEdgeStyle;curved=1;rounded=0;orthogonalLoop=1;jettySize=auto;html=1;endArrow=none;endFill=0;strokeWidth=4;fontFamily=Courier New;fontColor=#009900;exitX=1;exitY=0.5;exitDx=0;exitDy=0;exitPerimeter=0;entryX=0;entryY=0.5;entryDx=0;entryDy=0;entryPerimeter=0;" edge="1" parent="1" source="Fs9GSCr-eO8BMasJ_3ua-18" target="Fs9GSCr-eO8BMasJ_3ua-57">
          <mxGeometry relative="1" as="geometry">
            <mxPoint x="617" y="426" as="sourcePoint" />
            <mxPoint x="1079" y="427" as="targetPoint" />
          </mxGeometry>
        </mxCell>
        <mxCell id="Fs9GSCr-eO8BMasJ_3ua-304" value="Merge Request&lt;br style=&quot;font-size: 12px;&quot;&gt;+&lt;br style=&quot;font-size: 12px;&quot;&gt;Code Review" style="edgeLabel;html=1;align=center;verticalAlign=middle;resizable=0;points=[];fontSize=12;" vertex="1" connectable="0" parent="Fs9GSCr-eO8BMasJ_3ua-303">
          <mxGeometry x="0.0775" y="-1" relative="1" as="geometry">
            <mxPoint as="offset" />
          </mxGeometry>
        </mxCell>
        <mxCell id="Fs9GSCr-eO8BMasJ_3ua-305" style="edgeStyle=orthogonalEdgeStyle;curved=1;rounded=0;orthogonalLoop=1;jettySize=auto;html=1;endArrow=none;endFill=0;strokeWidth=4;fontFamily=Courier New;fontColor=#009900;" edge="1" parent="1" target="Fs9GSCr-eO8BMasJ_3ua-37">
          <mxGeometry relative="1" as="geometry">
            <mxPoint x="857.75" y="212" as="sourcePoint" />
            <mxPoint x="999.75" y="412" as="targetPoint" />
            <Array as="points">
              <mxPoint x="1074" y="212" />
              <mxPoint x="1074" y="881" />
            </Array>
          </mxGeometry>
        </mxCell>
        <mxCell id="Fs9GSCr-eO8BMasJ_3ua-306" value="check out" style="edgeLabel;html=1;align=center;verticalAlign=middle;resizable=0;points=[];fontSize=12;" vertex="1" connectable="0" parent="Fs9GSCr-eO8BMasJ_3ua-305">
          <mxGeometry x="-0.0409" y="-5" relative="1" as="geometry">
            <mxPoint as="offset" />
          </mxGeometry>
        </mxCell>
        <mxCell id="Fs9GSCr-eO8BMasJ_3ua-308" value="" style="verticalLabelPosition=bottom;verticalAlign=top;html=1;strokeWidth=4;shape=mxgraph.flowchart.on-page_reference;strokeColor=#d6b656;fillColor=#fff2cc;" vertex="1" parent="1">
          <mxGeometry x="890" y="612" width="30" height="30" as="geometry" />
        </mxCell>
        <mxCell id="Fs9GSCr-eO8BMasJ_3ua-309" value="" style="edgeStyle=orthogonalEdgeStyle;curved=1;rounded=0;orthogonalLoop=1;jettySize=auto;html=1;endArrow=none;endFill=0;strokeWidth=4;fontFamily=Courier New;fontColor=#009900;exitX=1;exitY=0.5;exitDx=0;exitDy=0;exitPerimeter=0;" edge="1" parent="1" source="Fs9GSCr-eO8BMasJ_3ua-208">
          <mxGeometry relative="1" as="geometry">
            <mxPoint x="775" y="636.5" as="sourcePoint" />
            <mxPoint x="889" y="627" as="targetPoint" />
          </mxGeometry>
        </mxCell>
        <mxCell id="Fs9GSCr-eO8BMasJ_3ua-310" value="npx&lt;br&gt;@shopee/low-code-engine-forker" style="text;strokeColor=#d6b656;align=center;fillColor=#fff2cc;html=1;verticalAlign=middle;whiteSpace=wrap;rounded=0;" vertex="1" parent="1">
          <mxGeometry x="616" y="563" width="218" height="30" as="geometry" />
        </mxCell>
        <mxCell id="Fs9GSCr-eO8BMasJ_3ua-311" value="implement feature&lt;br&gt;or fix bug" style="text;html=1;strokeColor=#006EAF;fillColor=#1ba1e2;align=center;verticalAlign=middle;whiteSpace=wrap;overflow=hidden;fontSize=14;fontColor=#ffffff;" vertex="1" parent="1">
          <mxGeometry x="388.25" y="350" width="117" height="43" as="geometry" />
        </mxCell>
        <mxCell id="Fs9GSCr-eO8BMasJ_3ua-312" value="npx&lt;br&gt;@shopee/low-code-engine-forker" style="text;strokeColor=#36393d;align=center;fillColor=#ffff88;html=1;verticalAlign=middle;whiteSpace=wrap;rounded=0;" vertex="1" parent="1">
          <mxGeometry x="1130" y="818" width="218" height="30" as="geometry" />
        </mxCell>
        <mxCell id="Fs9GSCr-eO8BMasJ_3ua-313" value="" style="verticalLabelPosition=bottom;verticalAlign=top;html=1;strokeWidth=4;shape=mxgraph.flowchart.on-page_reference;strokeColor=#6c8ebf;fillColor=#dae8fc;" vertex="1" parent="1">
          <mxGeometry x="1663" y="196" width="30" height="30" as="geometry" />
        </mxCell>
        <mxCell id="Fs9GSCr-eO8BMasJ_3ua-315" value="" style="edgeStyle=orthogonalEdgeStyle;rounded=0;html=1;jettySize=auto;orthogonalLoop=1;strokeWidth=4;endArrow=none;endFill=0;entryX=0;entryY=0.5;entryDx=0;entryDy=0;entryPerimeter=0;" edge="1" parent="1" target="Fs9GSCr-eO8BMasJ_3ua-313">
          <mxGeometry x="192.25" y="211" as="geometry">
            <mxPoint x="856" y="210.5" as="sourcePoint" />
            <mxPoint x="1389.75" y="211" as="targetPoint" />
          </mxGeometry>
        </mxCell>
        <mxCell id="Fs9GSCr-eO8BMasJ_3ua-316" value="Tag: 1.0.1-shopee.1" style="text;html=1;strokeColor=#36393d;fillColor=#cce5ff;align=center;verticalAlign=middle;whiteSpace=wrap;overflow=hidden;fontSize=14;" vertex="1" parent="1">
          <mxGeometry x="1602" y="167" width="162" height="20" as="geometry" />
        </mxCell>
      </root>
    </mxGraphModel>
  </diagram>
</mxfile>
